PathFileType	4	(X/Y/Z)	c:/Users/goper/Files/vsCode/490R/osim_files/A05/A05_Fast_03.trc
DataRate	CameraRate	NumFrames	NumMarkers	Units                	OrigDataRate	OrigDataStartFrame	OrigNumFrames
250.00	250.00	6	36	mm	250.0	1651	2200
                Frame#	Time	LPSIS			LASIS			LTH1			LTH2			LTH3			LTH4			LLFE			LMFE			LSH1			LSH2			LSH3			LSH4			LLMAL			LMMAL			LCAL			LMTP5			LTOE			LMTP1			RPSIS			RASIS			RTH1			RTH2			RTH3			RTH4			RLFE			RMFE			RSH1			RSH2			RSH3			RSH4			RLMAL			RMMAL			RCAL			RMTP1			RTOE			RMTP5		
		X1	Y1	Z1	X2	Y2	Z2	X3	Y3	Z3	X4	Y4	Z4	X5	Y5	Z5	X6	Y6	Z6	X7	Y7	Z7	X8	Y8	Z8	X9	Y9	Z9	X10	Y10	Z10	X11	Y11	Z11	X12	Y12	Z12	X13	Y13	Z13	X14	Y14	Z14	X15	Y15	Z15	X16	Y16	Z16	X17	Y17	Z17	X18	Y18	Z18	X19	Y19	Z19	X20	Y20	Z20	X21	Y21	Z21	X22	Y22	Z22	X23	Y23	Z23	X24	Y24	Z24	X25	Y25	Z25	X26	Y26	Z26	X27	Y27	Z27	X28	Y28	Z28	X29	Y29	Z29	X30	Y30	Z30	X31	Y31	Z31	X32	Y32	Z32	X33	Y33	Z33	X34	Y34	Z34	X35	Y35	Z35	X36	Y36	Z36

1651	6.60000	0.00000	0.00000	0.00000	-2813.41357	976.00879	486.97968	-2747.68945	680.62567	542.69171	-2772.52173	645.72894	546.11414	-2800.95386	708.86432	557.93414	-2818.49976	669.77820	557.42059	-2885.91284	503.79556	545.69147	-2884.09326	491.55798	446.40369	-2878.52466	402.06180	563.78656	-2890.02100	360.81311	569.48419	-2936.99463	409.84473	549.62488	-2940.27490	365.98996	558.58118	-2967.10840	147.80626	583.37830	0.00000	0.00000	0.00000	-2904.04785	102.39861	491.76813	-3106.87646	124.87662	610.69330	-3149.17065	154.33716	546.60669	-3112.07251	130.40123	499.83682	-2633.35620	1025.19019	292.82547	-2818.75513	967.33813	189.85582	-2716.90527	598.19232	150.22830	-2720.18091	557.90631	161.87546	-2771.44678	604.54968	179.80734	-2764.44312	558.29626	190.02182	-2683.19507	519.66571	162.23282	-2681.69409	501.06454	303.15125	-2578.32202	275.58295	160.04413	-2563.42188	234.80296	157.26953	-2634.22827	254.43272	177.25261	-2609.77051	212.23436	179.27139	-2530.15112	128.14362	185.65050	-2569.50854	142.39314	279.41736	-2458.64526	82.36410	256.69116	-2668.74438	55.51811	269.25064	-2703.89941	62.81208	216.96997	-2642.55713	47.42982	150.32626
1652	6.60400	0.00000	0.00000	0.00000	-2817.80298	975.13800	487.89725	-2751.77124	679.69934	543.04620	-2776.81982	644.40027	547.07330	-2805.10669	707.88226	558.46649	-2822.39941	668.70477	557.89307	-2889.55518	502.79196	545.50531	0.00000	0.00000	0.00000	-2882.67139	401.01227	563.84753	-2894.66943	359.82886	569.78235	-2941.09644	408.83878	549.90778	-2944.75415	365.22186	558.83472	-2971.24194	146.78127	583.16571	0.00000	0.00000	0.00000	-2908.26880	101.21260	491.41867	-3110.86963	123.80054	610.89368	-3153.12305	153.09819	546.87354	-3117.25195	129.88869	500.24722	-2637.16284	1024.31116	294.15091	-2822.31592	966.89569	190.51053	-2719.04517	598.07800	150.71864	-2722.30103	557.81244	162.17366	-2773.76123	604.27655	180.10243	-2766.66797	558.02338	190.22919	0.00000	0.00000	0.00000	-2683.99585	500.94797	303.59009	-2581.33960	278.83682	159.55968	-2564.05200	235.06880	157.56680	-2635.02905	254.59810	177.45189	-2610.39380	212.47560	179.41481	-2529.85107	128.43394	186.09991	-2567.60840	140.68112	279.96011	-2458.52393	83.31950	256.24933	-2669.16113	55.92881	269.21729	-2703.97046	62.72409	217.00546	-2642.58228	47.46769	150.36377
1653	6.60800	0.00000	0.00000	0.00000	-2822.23242	974.35834	488.72656	-2755.83472	678.74939	543.42365	-2780.61743	643.60736	546.72516	-2809.18042	706.83722	559.06018	-2826.44434	667.61304	558.39441	-2894.06543	501.72571	546.37567	-2892.85889	489.97772	447.02271	-2886.66284	399.92105	563.90015	-2898.59839	358.70197	569.72321	-2945.12549	407.78922	550.20905	-2948.75488	364.08112	558.97998	-2975.20093	145.67050	582.95789	0.00000	0.00000	0.00000	-2912.31934	100.05428	491.04581	-3114.78638	122.68310	611.04553	-3157.51855	152.46205	547.46185	-3120.84619	128.94035	500.42752	-2644.01538	1023.55182	295.75940	-2825.88330	966.49609	191.11934	-2721.23169	598.02246	151.14836	-2724.37622	557.70654	162.53723	-2776.10522	604.00537	180.36214	-2768.83911	557.70129	190.38829	-2687.00903	519.65723	163.09346	-2686.49316	500.88531	304.01169	-2582.15283	279.36301	159.94600	-2564.76611	235.36234	157.94098	-2636.52002	255.54814	178.28987	-2611.06567	212.75859	179.56595	-2530.82495	129.47833	186.15791	-2568.11328	140.93723	280.19412	-2458.75806	83.88520	256.31439	-2668.94922	55.51186	269.25970	-2704.07544	62.66532	217.00945	-2642.61572	47.53357	150.40590
1654	6.61200	0.00000	0.00000	0.00000	-2826.63135	973.32324	489.59402	-2759.91016	677.72089	543.75415	-2784.63550	642.54047	546.96802	-2813.06323	705.66583	559.49023	-2830.57495	666.55988	558.90356	-2897.95166	500.59262	546.63318	0.00000	0.00000	0.00000	-2890.51074	398.76984	563.94910	-2902.42114	357.52246	569.63287	-2949.08472	406.67068	550.36255	-2952.78638	363.03259	559.09271	-2979.12500	144.54195	582.64075	-2977.49487	137.84041	489.86719	0.00000	0.00000	0.00000	-3118.57104	121.34190	611.08209	-3161.57178	151.42172	547.69324	-3124.87207	127.87823	500.46478	-2643.02881	1023.31494	294.82230	-2829.50879	966.10852	191.82230	-2723.47412	597.98340	151.55304	-2726.50635	557.61694	162.93307	-2778.43433	603.72473	180.63797	-2771.12573	557.48413	190.53769	-2689.02881	519.66663	163.52618	-2688.97314	500.77969	304.36993	-2580.75537	277.03928	161.15657	-2565.32422	235.68871	158.15123	-2637.16211	255.55843	178.35419	-2611.63770	213.00806	179.69324	-2530.47412	129.64581	186.78435	-2571.05420	143.04842	280.08789	-2459.91650	84.18721	256.75900	-2669.05664	55.47504	269.27975	-2704.14209	62.56172	216.97356	-2642.62744	47.56035	150.45117
1655	6.61600	0.00000	0.00000	0.00000	-2831.15210	972.45807	490.41101	-2763.85254	676.64087	544.10278	-2788.95044	641.20325	547.97534	-2817.05615	704.50372	559.99689	-2834.43115	665.35529	559.30396	-2901.74707	499.38132	546.85577	0.00000	0.00000	0.00000	-2894.30762	397.50549	563.96143	-2906.21948	356.23764	569.63440	-2952.90942	405.47028	550.50562	-2956.61133	361.81091	559.18256	-2982.93311	143.34554	582.33551	-2981.44336	136.77957	489.48621	-2919.92212	63.86979	532.18262	-3122.36768	120.13023	610.99188	-3165.45166	150.25491	547.77972	-3128.90942	126.82663	500.41116	-2648.25879	1021.85632	297.17172	-2833.14258	965.78534	192.43292	0.00000	0.00000	0.00000	-2728.75195	557.59735	163.23241	-2780.83179	603.47803	180.90602	-2773.46338	557.19434	190.71742	-2690.99756	519.71222	163.93535	-2691.38940	500.65137	304.80405	-2583.84351	280.33041	160.75000	0.00000	0.00000	0.00000	-2637.70801	255.56880	178.37675	-2612.31494	213.32953	179.89349	-2531.33081	130.51927	186.93640	-2569.57153	141.65793	280.68512	0.00000	0.00000	0.00000	-2669.13354	55.48682	269.27545	-2704.25513	62.47098	217.00986	-2642.64600	47.58148	150.51228
1656	6.62000	0.00000	0.00000	0.00000	-2835.63013	971.50476	491.24493	-2767.97241	675.64832	544.54517	-2794.60278	641.56744	546.59924	-2821.24438	703.42090	560.51068	-2838.40283	664.19586	559.74719	-2905.59668	498.18356	547.09064	0.00000	0.00000	0.00000	-2898.04883	396.26147	563.99115	-2909.97778	355.04819	569.63129	-2956.66016	404.17596	550.61847	-2960.36572	360.52951	559.21356	-2986.58643	142.04146	582.07971	-2985.24609	135.63490	489.08661	0.00000	0.00000	0.00000	-3125.91553	118.62869	610.79584	-3169.17261	148.95137	547.69983	-3134.14429	126.41692	500.64935	-2655.82837	1021.53448	299.51450	-2836.78345	965.39221	193.12660	-2728.07666	597.99811	152.54106	-2731.05005	557.59766	163.52834	-2783.28467	603.23993	181.12027	-2775.78613	556.95435	190.88332	-2693.02734	519.77600	164.42345	-2693.80396	500.54977	305.18710	-2582.57715	278.26291	161.92451	0.00000	0.00000	0.00000	-2638.45386	255.52232	178.16037	-2612.99805	213.64574	179.99992	-2531.03198	131.15692	187.18886	-2570.05835	141.93661	280.84930	-2460.01245	85.61285	256.72089	-2669.21338	55.46154	269.26053	-2704.34253	62.38244	217.01094	-2642.69507	47.65771	150.55678
